<svg width="400" height="332" viewBox="0 0 400 332" fill="none" xmlns="http://www.w3.org/2000/svg">
<path d="M242.658 110.667C242.658 122.84 232.731 132.8 220.598 132.8H22.0598C9.92693 132.8 0 122.84 0 110.667C0 98.4933 9.92693 88.5333 22.0598 88.5333H220.598C232.731 88.5333 242.658 98.4933 242.658 110.667ZM0 22.1333C0 34.3067 9.92693 44.2667 22.0598 44.2667H220.598C232.731 44.2667 242.658 34.3067 242.658 22.1333C242.658 9.96 232.731 0 220.598 0H22.0598C9.92693 0 0 9.96 0 22.1333ZM154.419 199.2C154.419 187.027 144.492 177.067 132.359 177.067H22.0598C9.92693 177.067 0 187.027 0 199.2C0 211.373 9.92693 221.333 22.0598 221.333H132.359C144.492 221.333 154.419 211.373 154.419 199.2ZM331.118 152.056L346.781 136.341C348.821 134.289 351.246 132.662 353.914 131.551C356.583 130.44 359.444 129.869 362.333 129.869C365.222 129.869 368.083 130.44 370.751 131.551C373.42 132.662 375.844 134.289 377.885 136.341L393.548 152.056C402.151 160.688 402.151 174.632 393.548 183.264L377.885 198.979L331.118 152.056ZM315.456 167.771L201.627 281.979C199.642 283.971 198.539 286.627 198.539 289.725V320.933C198.539 327.131 203.392 332 209.568 332H240.673C243.541 332 246.408 330.893 248.394 328.68L362.223 214.472L315.456 167.771Z" fill="#2160A1"/>
</svg>
