<svg width="400" height="335" viewBox="0 0 400 335" fill="none" xmlns="http://www.w3.org/2000/svg">
<path d="M200 0C192.503 -1.09192e-07 185.08 1.4433 178.154 4.2475C171.228 7.0517 164.935 11.1619 159.634 16.3434C154.333 21.5249 150.128 27.6762 147.26 34.4461C144.391 41.2161 142.914 48.472 142.914 55.7998C142.914 63.1275 144.391 70.3835 147.26 77.1534C150.128 83.9233 154.333 90.0747 159.634 95.2561C164.935 100.438 171.228 104.548 178.154 107.352C185.08 110.156 192.503 111.6 200 111.6C215.14 111.6 229.66 105.721 240.366 95.2561C251.071 84.7917 257.086 70.5988 257.086 55.7998C257.086 41.0007 251.071 26.8079 240.366 16.3434C229.66 5.87888 215.14 0 200 0ZM328.571 27.872C317.205 27.872 306.304 32.2855 298.267 40.1418C290.23 47.998 285.714 58.6533 285.714 69.7637C285.714 80.874 290.23 91.5294 298.267 99.3856C306.304 107.242 317.205 111.655 328.571 111.655C339.938 111.655 350.839 107.242 358.876 99.3856C366.913 91.5294 371.429 80.874 371.429 69.7637C371.429 58.6533 366.913 47.998 358.876 40.1418C350.839 32.2855 339.938 27.872 328.571 27.872ZM71.4286 27.872C60.0622 27.872 49.1613 32.2855 41.124 40.1418C33.0867 47.998 28.5714 58.6533 28.5714 69.7637C28.5714 80.874 33.0867 91.5294 41.124 99.3856C49.1613 107.242 60.0622 111.655 71.4286 111.655C82.795 111.655 93.6959 107.242 101.733 99.3856C109.77 91.5294 114.286 80.874 114.286 69.7637C114.286 58.6533 109.77 47.998 101.733 40.1418C93.6959 32.2855 82.795 27.872 71.4286 27.872ZM114.286 167.316C114.339 159.943 117.372 152.889 122.724 147.694C128.077 142.499 135.314 139.583 142.857 139.583H257.143C264.72 139.583 271.988 142.526 277.346 147.763C282.704 153.001 285.714 160.104 285.714 167.511V251.294C285.722 260.085 284.314 268.821 281.543 277.184C275.216 296.138 262.184 312.267 244.786 322.675C227.388 333.083 206.764 337.087 186.618 333.968C166.472 330.85 148.122 320.813 134.865 305.661C121.608 290.508 114.312 271.232 114.286 251.294V167.316ZM85.7143 167.511C85.7143 157.317 88.4857 147.794 93.3714 139.583H28.5714C20.9938 139.583 13.7266 142.526 8.36838 147.763C3.0102 153.001 3.95466e-06 160.104 3.95466e-06 167.511V237.331C-0.00388708 248.762 2.8636 260.019 8.35065 270.113C13.8377 280.208 21.7765 288.831 31.4698 295.226C41.1631 301.621 52.3144 305.591 63.9445 306.789C75.5745 307.987 87.3276 306.375 98.1714 302.095C89.9655 286.353 85.6963 268.934 85.7143 251.266V167.511ZM314.286 167.511V251.294C314.286 269.587 309.8 286.847 301.829 302.095C312.672 306.375 324.425 307.987 336.056 306.789C347.686 305.591 358.837 301.621 368.53 295.226C378.224 288.831 386.162 280.208 391.649 270.113C397.136 260.019 400.004 248.762 400 237.331V167.511C400 160.104 396.99 153.001 391.632 147.763C386.273 142.526 379.006 139.583 371.429 139.583H306.629C311.486 147.794 314.286 157.317 314.286 167.511Z" fill="#2160A1"/>
</svg>
