<svg width="400" height="371" viewBox="0 0 400 371" fill="none" xmlns="http://www.w3.org/2000/svg">
<path d="M179.085 0C220.412 0 247.964 13.8692 261.74 27.7383C261.74 41.6075 151.534 180.299 137.758 180.299C123.982 180.299 113.512 169.481 110.206 152.561C89.267 197.497 55.1031 305.121 41.3273 360.598C41.3273 374.467 0 374.467 0 360.598C0 346.729 40.5008 121.216 96.4304 55.4766C123.155 24.1323 151.534 0 179.085 0ZM375.803 253.528C381.313 258.799 385.997 262.682 390.681 267.952C395.64 272.945 381.864 287.092 376.63 282.931C371.119 278.77 368.915 276.274 361.476 268.507C354.313 261.018 370.293 248.258 375.803 253.528ZM330.894 210.534C324.006 203.322 310.781 220.242 316.843 225.513C322.629 230.783 325.935 234.111 331.721 239.936C337.506 245.761 352.109 230.505 346.047 224.68C339.711 219.133 338.058 217.468 330.894 210.534ZM286.261 167.262C281.301 162.547 267.526 178.08 271.934 182.518C279.097 189.453 281.852 191.949 286.812 196.665C291.771 201.38 307.475 187.788 301.138 181.686C294.802 175.861 290.944 171.978 286.261 167.262ZM241.352 124.268C234.739 117.888 219.586 132.312 227.025 139.246C234.464 146.458 236.668 149.232 241.903 153.67C247.137 158.108 260.913 143.13 256.229 138.692C251.546 134.253 247.137 129.815 241.352 124.268ZM317.669 319.545C311.057 309.837 296.73 326.48 301.689 332.582C306.649 338.685 309.955 342.846 314.639 348.671C319.322 354.496 336.129 342.291 330.619 335.634C325.384 328.699 325.108 328.422 317.669 319.545ZM278.822 271.003C273.862 264.901 256.505 275.719 262.842 284.04C268.903 292.362 269.454 292.084 275.791 300.129C281.852 308.173 296.179 292.639 291.771 287.092C287.363 281.544 283.23 276.274 278.822 271.003ZM239.974 222.461C233.086 213.862 217.933 228.009 223.719 235.498C229.78 242.71 231.984 246.316 236.668 251.587C241.627 256.857 259.26 247.148 252.923 238.55C248.239 232.17 246.311 230.228 239.974 222.461ZM200.851 173.642C191.208 165.043 177.432 177.803 184.871 186.956C192.31 196.11 192.861 197.219 197.82 203.044C202.779 208.87 219.586 196.665 213.8 190.007C208.29 183.073 204.432 178.08 200.851 173.642ZM382.14 147.845C374.15 142.575 365.609 161.16 370.017 164.766C374.426 168.372 380.487 172.532 386.824 176.97C392.885 181.409 403.355 163.933 398.946 160.05C394.263 156.167 391.783 154.502 382.14 147.845ZM331.721 111.231C325.384 107.07 313.537 124.268 319.598 128.151C326.21 133.421 330.068 135.64 336.404 140.356C342.741 145.071 353.762 127.041 348.527 123.436C343.118 119.104 337.51 115.031 331.721 111.231ZM281.577 74.8935C274.964 69.9006 263.393 87.0983 269.454 91.5365C275.515 96.252 280.75 100.135 286.261 103.741C291.771 107.625 304.445 91.8138 298.383 87.0983C293.148 82.6602 288.74 80.1637 281.577 74.8935Z" fill="#2160A1"/>
</svg>
